<svg width="91" height="87" viewBox="0 0 91 87" fill="none" xmlns="http://www.w3.org/2000/svg">
<g clip-path="url(#clip0_344_4338)">
<g filter="url(#filter0_d_344_4338)">
<path fill-rule="evenodd" clip-rule="evenodd" d="M45.3107 8.86675C28.0833 8.86675 13.6307 20.3674 9.92078 35.7741L9.92077 35.7741C9.31686 38.2819 8.99707 40.8958 8.99707 43.5842C8.99707 62.7435 25.2705 78.3016 45.3107 78.3016C65.3509 78.3016 81.6243 62.7435 81.6243 43.5842C81.6243 24.4248 65.3509 8.86675 45.3107 8.86675ZM3.58647 34.3799C7.96012 16.2169 24.9863 2.65247 45.3107 2.65247C68.9408 2.65247 88.1243 20.9928 88.1243 43.5842C88.1243 66.1756 68.9408 84.5159 45.3107 84.5159C21.6806 84.5159 2.49707 66.1756 2.49707 43.5842C2.49707 40.4231 2.87326 37.3415 3.58647 34.3799Z" fill="#FF9F66"/>
</g>
</g>
<path d="M59.9998 57.9998L45.5 43.5M45.5 43.5L31 29M45.5 43.5L60 29M45.5 43.5L31 58" stroke="#002379" stroke-width="2" stroke-linecap="round" stroke-linejoin="round"/>
<defs>
<filter id="filter0_d_344_4338" x="-1.50293" y="2.65247" width="93.6272" height="89.8634" filterUnits="userSpaceOnUse" color-interpolation-filters="sRGB">
<feFlood flood-opacity="0" result="BackgroundImageFix"/>
<feColorMatrix in="SourceAlpha" type="matrix" values="0 0 0 0 0 0 0 0 0 0 0 0 0 0 0 0 0 0 127 0" result="hardAlpha"/>
<feOffset dy="4"/>
<feGaussianBlur stdDeviation="2"/>
<feComposite in2="hardAlpha" operator="out"/>
<feColorMatrix type="matrix" values="0 0 0 0 0 0 0 0 0 0 0 0 0 0 0 0 0 0 0.25 0"/>
<feBlend mode="normal" in2="BackgroundImageFix" result="effect1_dropShadow_344_4338"/>
<feBlend mode="normal" in="SourceGraphic" in2="effect1_dropShadow_344_4338" result="shape"/>
</filter>
<clipPath id="clip0_344_4338">
<rect width="91" height="87" fill="white"/>
</clipPath>
</defs>
</svg>
