<svg width="91" height="87" viewBox="0 0 91 87" fill="none" xmlns="http://www.w3.org/2000/svg">
<path fill-rule="evenodd" clip-rule="evenodd" d="M66.6389 28.193C67.9107 29.4039 67.9149 31.3712 66.6483 32.5871L39.2637 58.8744C37.9971 60.0903 35.9394 60.0943 34.6676 58.8834L24.6806 49.375C23.4087 48.1641 23.4044 46.1968 24.671 44.9808C25.9376 43.7649 27.9953 43.7608 29.2672 44.9717L36.9515 52.2877L62.0428 28.2019C63.3094 26.986 65.3672 26.982 66.6389 28.193Z" fill="#002379"/>
<path fill-rule="evenodd" clip-rule="evenodd" d="M45.3107 8.86663C28.0833 8.86663 13.6307 20.3673 9.92078 35.7739L9.92077 35.774C9.31686 38.2817 8.99707 40.8957 8.99707 43.584C8.99707 62.7434 25.2705 78.3015 45.3107 78.3015C65.3509 78.3015 81.6243 62.7434 81.6243 43.584C81.6243 24.4247 65.3509 8.86663 45.3107 8.86663ZM3.58647 34.3798C7.96012 16.2168 24.9863 2.65234 45.3107 2.65234C68.9408 2.65234 88.1243 20.9926 88.1243 43.584C88.1243 66.1754 68.9408 84.5157 45.3107 84.5157C21.6806 84.5157 2.49707 66.1754 2.49707 43.584C2.49707 40.423 2.87326 37.3414 3.58647 34.3798Z" fill="#FF9F66"/>
</svg>
